Coordinates
version=1
nRows=19
nColumns=33
inDegrees=yes

Units are S.I. units (second, meters, Newtons, ...)
Angles are in degrees.

endheader
time	ground_thorax_rot_x	ground_thorax_rot_y	ground_thorax_rot_z	ground_thorax_tx	ground_thorax_ty	ground_thorax_tz	clav_prot_r	clav_elev_r	scapula_abduction_r	scapula_elevation_r	scapula_upward_rot_r	scapula_winging_r	shoulder_elv_r	plane_of_elev_r	axial_rot_r	elbow_flexion_r	pro_sup_r	wrist_flex_r	wrist_dev_r	clav_prot_l	clav_elev_l	scapula_abduction_l	scapula_elevation_l	scapula_upward_rot_l	scapula_winging_l	shoulder_elv_l	plane_of_elev_l	axial_rot_l	elbow_flexion_l	pro_sup_l	wrist_flex_l	wrist_dev_l
      6.83000000	    -42.37579764	     -3.56163604	      2.11179962	   -137.58320593	    891.44645631	     -5.13046173	      8.08083403	    -45.00000000	     43.62066748	    -45.00000000	    -16.51198069	   3501.62641875	  -2267.59683810	    148.66975005	    -99.81442138	     19.41662298	     85.47056712	     16.43142567	      3.03259433	     15.95734918	     41.76147012	    -43.86842537	    -45.00000000	    -33.79370490	  -2432.61163266	   -455.99045358	    137.90527323	    168.41253644	      9.91456590	     18.45177970	     11.12295900	    -22.83841878
      6.84000000	    -42.36661988	     -3.41640764	      1.97045852	   -133.96364073	    888.75270329	     -4.96071656	      7.93564797	    -45.00000000	     43.77062694	    -45.00000000	    -15.65435302	   3501.76532045	  -2267.95172334	    148.72533336	    -99.99662629	     19.40538411	     85.91707880	     16.39504789	      3.06837858	     16.16159350	     41.88554125	    -44.04279027	    -45.00000000	    -33.34361478	  -2432.96199802	   -456.20381511	    137.94084349	    168.80307918	      9.67655178	     15.70695855	     11.68032703	    -22.60418908
      6.85000000	    -42.34155249	     -3.54896858	      2.03979329	   -130.36631810	    885.86097960	     -4.78139663	      7.87988607	    -45.00000000	     43.98464787	    -45.00000000	    -15.22136635	   3501.97216960	  -2268.21244226	    148.79427197	   -100.35462460	     19.42703644	     86.20219709	     16.36211437	      3.10324185	     16.05691188	     42.05506879	    -44.13751807	    -45.00000000	    -33.05067531	  -2433.06853983	   -456.54379307	    137.81599263	    168.89579378	      9.46078775	     13.46120781	     12.08143447	    -22.39185583
      6.86000000	    -42.30405114	     -3.56095262	      1.94789505	   -126.79810946	    882.77983512	     -4.59096266	      7.78514311	    -45.00000000	     44.17876168	    -45.00000000	    -14.75773510	   3502.23838214	  -2268.53573194	    148.82160482	   -100.73301708	     19.39773715	     86.33318051	     16.36294094	      3.15805215	     16.10743753	     42.20296208	    -44.22219159	    -45.00000000	    -32.68482778	  -2433.31234219	   -456.82992952	    137.78138017	    169.09738154	      9.27950770	     11.46992004	     12.46978045	    -22.16332813
      6.87000000	    -42.28471221	     -3.45154851	      1.85211865	   -123.26453650	    879.51983620	     -4.38855725	      7.67094377	    -45.00000000	     44.31263064	    -45.00000000	    -14.05244007	   3502.35599206	  -2268.98089246	    148.87326801	   -101.05776896	     19.33380821	     86.29339752	     16.33485668	      3.21906484	     16.34794654	     42.29351961	    -44.39480947	    -45.00000000	    -32.42864771	  -2433.68108684	   -457.05688774	    137.77554069	    169.61237388	      9.15017891	      9.52829951	     12.90079686	    -21.90944478
      6.88000000	    -42.24618454	     -3.50056297	      1.86400799	   -119.77005599	    876.09333651	     -4.17441503	      7.59329161	    -45.00000000	     44.45305691	    -45.00000000	    -13.62456768	   3502.54236805	  -2269.35996319	    148.94411487	   -101.51075395	     19.32803762	     86.04050840	     16.35097968	      3.27677303	     16.46317301	     42.41880639	    -44.47930730	    -45.00000000	    -32.23913838	  -2433.94761954	   -457.33724814	    137.68654081	    170.00976777	      9.02793667	      7.95431954	     13.21142968	    -21.68341183
      6.89000000	    -42.19095565	     -3.51147769	      1.84195467	   -116.31864978	    872.51278381	     -3.94908716	      7.52724872	    -45.00000000	     44.60225650	    -45.00000000	    -13.27380532	   3502.75015705	  -2269.74741059	    148.98056422	   -101.97985598	     19.20535602	     85.53388954	     16.36182656	      3.36661452	     16.54835286	     42.51490870	    -44.57728866	    -45.00000000	    -32.09140775	  -2434.29234541	   -457.62640996	    137.60072777	    170.48706696	      8.87445014	      6.68595602	     13.53740647	    -21.45415962
      6.90000000	    -42.13219235	     -3.58105544	      1.85787834	   -112.91786119	    868.79668690	     -3.71346792	      7.46152076	    -45.00000000	     44.73110454	    -45.00000000	    -13.03040472	   3502.99606911	  -2270.13154864	    149.03430788	   -102.54675646	     19.08372753	     84.77159583	     16.43232530	      3.47040706	     16.68018559	     42.62082383	    -44.65219859	    -45.00000000	    -32.05129187	  -2434.65329201	   -457.91518843	    137.50354091	    171.02893555	      8.72031089	      5.70029107	     13.77598768	    -21.24564276
      6.91000000	    -42.07862792	     -3.69371357	      1.90785913	   -109.57369957	    864.96481228	     -3.46724454	      7.39364729	    -45.00000000	     44.84074544	    -45.00000000	    -12.91376334	   3503.28416656	  -2270.48528488	    149.09262310	   -103.18253581	     18.97021057	     83.76070848	     16.55210499	      3.58578888	     16.81758636	     42.72630696	    -44.69950461	    -45.00000000	    -32.07514984	  -2435.02242660	   -458.20805909	    137.39131229	    171.58620593	      8.55663791	      4.95964022	     13.94784625	    -21.05367592
      6.92000000	    -42.01759062	     -3.76703919	      1.95249103	   -106.29336245	    861.04090547	     -3.20830898	      7.32952254	    -45.00000000	     44.91385879	    -45.00000000	    -12.78483781	   3503.55411405	  -2270.91821957	    149.15608492	   -103.81597917	     18.78209066	     82.44404034	     16.65511134	      3.72568193	     16.98349664	     42.80316908	    -44.76391073	    -45.00000000	    -32.17274492	  -2435.42391976	   -458.45101227	    137.26129073	    172.28649395	      8.43169532	      4.35761823	     14.16207411	    -20.86245710
      6.93000000	    -41.93887304	     -3.92922947	      2.06050939	   -103.08017079	    857.04837693	     -2.93193163	      7.27731024	    -45.00000000	     44.97009000	    -45.00000000	    -12.90506570	   3503.88120173	  -2271.27451917	    149.21285908	   -104.53832853	     18.62255299	     80.90251570	     16.82615517	      3.88181526	     17.13835871	     42.84985779	    -44.78914034	    -45.00000000	    -32.36420186	  -2435.84115853	   -458.73365308	    137.10553142	    172.97434374	      8.26980071	      3.89667419	     14.28021505	    -20.67881712
      6.94000000	    -41.88030757	     -4.09229641	      2.13809524	    -99.93568314	    853.00952647	     -2.63211170	      7.24881042	    -45.00000000	     45.00000000	    -45.00000000	    -12.97227426	   3504.20995945	  -2271.67136638	    149.23372129	   -105.05176835	     18.41368573	     79.12475911	     16.95285453	      4.05050709	     17.17819531	     42.87243541	    -44.73183612	    -45.00000000	    -32.55239693	  -2436.25831559	   -458.95816986	    136.90787922	    173.70340385	      8.14334614	      3.52683526	     14.47084688	    -20.49042768
      6.95000000	    -41.79015978	     -4.20164510	      2.23416495	    -96.86817958	    848.95714997	     -2.30274637	      7.17895384	    -45.00000000	     45.00000000	    -45.00000000	    -13.06867047	   3504.53573912	  -2272.03175861	    149.32520427	   -105.84310122	     18.19238923	     77.08887091	     17.16165881	      4.25448180	     17.46586745	     42.94915760	    -44.83863616	    -45.00000000	    -32.86154969	  -2436.66991509	   -459.24138008	    136.71795712	    174.46243120	      7.97528672	      3.21682340	     14.56234905	    -20.30436514
      6.96000000	    -41.75051230	     -4.10021064	      2.14555527	    -93.87180715	    844.90492273	     -1.93652170	      7.17335727	    -45.00000000	     45.00000000	    -45.00000000	    -12.79342993	   3504.69998409	  -2272.61267574	    149.33263784	   -106.25194742	     17.77850179	     74.42352133	     17.24333068	      4.49518486	     17.44763208	     42.92208954	    -44.87601732	    -45.00000000	    -32.81666872	  -2437.30823134	   -459.39355755	    136.63870302	    175.53825326	      7.83109812	      2.95201075	     14.98167821	    -20.04550899
      6.97000000	    -41.68615833	     -4.47204417	      2.40096637	    -90.94947232	    840.87896731	     -1.52808789	      7.16236116	    -45.00000000	     45.00000000	    -45.00000000	    -13.50994673	   3505.22512653	  -2272.85874762	    149.38874985	   -107.02686085	     17.55555997	     71.86727790	     17.55287100	      4.76514381	     17.72433203	     42.94073971	    -44.83539236	    -45.00000000	    -33.50703020	  -2437.56726185	   -459.57426516	    136.22055259	    176.16394688	      7.65378829	      2.81149843	     14.90876535	    -19.89667355
      6.98000000	    -41.59757271	     -4.56665938	      2.39623013	    -88.09893442	    836.89189519	     -1.07376974	      7.02488446	    -45.00000000	     45.00000000	    -45.00000000	    -13.47197580	   3505.54527266	  -2273.26376520	    149.49662070	   -107.60880969	     17.18180188	     68.85154530	     17.77678097	      5.08092874	     18.05753570	     42.99296862	    -44.88124275	    -45.00000000	    -33.70639470	  -2438.13575628	   -459.79641695	    136.15762082	    177.12495486	      7.49356517	      2.75857972	     15.01979711	    -19.70944255
      6.99000000	    -41.52715587	     -4.62649822	      2.46339931	    -85.32418169	    832.96573501	     -0.57331422	      7.01778621	    -45.00000000	     45.00000000	    -45.00000000	    -13.68109297	   3505.83798487	  -2273.66606824	    149.56319445	   -108.11365910	     16.69932039	     65.38879138	     17.96196838	      5.44287160	     18.21283045	     42.99026118	    -44.87224688	    -45.00000000	    -33.89457790	  -2438.65302489	   -459.94672539	    135.91773913	    178.03638585	      7.38655508	      2.87370650	     15.18777936	    -19.52819249
      7.00000000	    -41.45614403	     -4.79039155	      2.52298036	    -82.62944327	    829.11879187	     -0.02949045	      6.94085972	    -45.00000000	     45.00000000	    -45.00000000	    -13.78464726	   3506.19987842	  -2274.05867221	    149.68147430	   -108.47962548	     16.20839293	     61.55937885	     18.15765392	      5.84223322	     18.41134374	     43.04161994	    -44.93671702	    -45.00000000	    -34.16825696	  -2439.18244556	   -460.15179439	    135.81506756	    178.96355783	      7.16342957	      3.14579106	     15.27132535	    -19.36300339
      7.01000000	    -41.42878350	     -4.85546890	      2.50470054	    -80.01925911	    825.36749496	      0.55220549	      6.87256195	    -45.00000000	     45.00000000	    -45.00000000	    -13.85764154	   3506.48715674	  -2274.48819334	    149.78697510	   -108.78009059	     15.63053401	     57.16152639	     18.31266633	      6.29844280	     18.62362876	     43.05831210	    -44.97791344	    -45.00000000	    -34.29204818	  -2439.70809806	   -460.33432166	    135.70266897	    179.92713632	      6.96788986	      3.60651200	     15.37620808	    -19.20823595
